<svg id="レイヤー_1" data-name="レイヤー 1" xmlns="http://www.w3.org/2000/svg" viewBox="0 0 1377.97 1051.69"><defs><style>.cls-1{fill:#fff;}</style></defs><path class="cls-1" d="M1476,571.52a.47.47,0,0,1-.1-.16.94.94,0,0,1-.1-.73c.3-1.21.36-1.41,22.69,3.75-14.2-3.94-15.08-4.44-15.44-5a1.11,1.11,0,0,1-.09-.74c.14-.55.23-.86,2.36-.43.34-.76,2-.58,20.54,1.49,4.17.47,8.83,1,12.67,1.39-3-.84-6.57-1.79-9.77-2.65-17.55-4.74-17.57-4.87-17.84-5.43a1,1,0,0,1-.1-.75c.3-1.14.3-1.14,20.87,1.88l1.38.2-3.36-.92c-18.3-5-18.42-5.14-18.75-5.73a1,1,0,0,1-.09-.74,1,1,0,0,1,.42-.56c.32-.2.47-.29,5,1,.36-.63,1.89-.45,14.23,1,2.11.25,4.47.54,6.72.79l-2-.53c-11.21-3-11.36-3.17-11.69-3.63-5.59-1.59-5.63-1.79-5.82-2.1a1,1,0,0,1-.07-.74c.22-.91.22-.91,12.43.46l5.4.6c-8.54-2.26-8.61-2.4-8.86-2.89a1,1,0,0,1-.11-.7c-1.43-.48-1.52-.6-1.64-.87a1,1,0,0,1-.09-.72c.16-.65.16-.65,8.37-2.6l5.14-1.23-3.17-.89c-6.65-1.84-6.65-1.82-6.88-2.27a1,1,0,0,1-.08-.75c.2-.7.2-.7,6.1-.9l2-.07c-2.78-.78-2.76-.83-3-1.17a1,1,0,0,1-.07-.66c.2-.88.2-.88,4.07-.34a2.06,2.06,0,0,0,.26,0,1.5,1.5,0,0,1,.48-.19.92.92,0,0,1,.74-.43,1.08,1.08,0,0,1,.31.07l.38.1c.44.12.82.23,1,.76a1,1,0,0,1,0,.17.8.8,0,0,1,.26.36,1,1,0,0,1,0,.64c2.11.62,2.06.78,1.89,1.51s-.2.82-8,1.09l.91.25c6.66,1.85,6.65,1.83,6.89,2.28a1,1,0,0,1,.09.71c-.17.66-.17.66-9,2.76l-4.69,1.13c2.81.81,7.22,2,10.78,3,11.42,3.12,11.41,3.11,11.18,4.17-.21.82-.27,1-4.94-.12-.32.8-1.5.67-16-1l-2.16-.24,7.77,2.17c14,3.88,14.07,3.85,14.35,4.42a.92.92,0,0,1,.09.71c-.23.87-.63.93-3.06.28-1.09.26-4.53-.16-16.57-1.59l-3.92-.47,7,1.91c17.39,4.68,17.38,4.81,17.73,5.42a1,1,0,0,1,.1.73c-.2.75-.27,1-5.52-.33-.41.54-2.23.27-14.32-1.49-3.06-.46-6.58-1-9.78-1.42l7.54,2c18,4.85,18,5,18.31,5.57a1,1,0,0,1,.09.75c-.28,1.05-.28,1.05-21.92-1.37-4-.45-8.24-.92-11.74-1.29,4.63,1.32,10.72,3,16.09,4.43,19.84,5.37,20,5.48,20.26,6.1a1,1,0,0,1,.09.74.19.19,0,0,1,0,.09s0,0,0,.06a1,1,0,0,1,.07.74c-.3,1.22-.3,1.22-24.87-4.47l-8.69-2,7.77,2.13c22.85,6.25,22.85,6.31,23.19,7a1,1,0,0,1,.09.74.89.89,0,0,1-1.1.65,1,1,0,0,1-.32-.18c-1.36-.61-12.47-3.65-22.3-6.34C1479.55,573.13,1476.56,572.17,1476,571.52Z" transform="translate(-313.02 -13.91)"/><path class="cls-1" d="M1159.29,849.16c-.22-.23-.17-.44-.11-.71.28-1.11.28-1.11,19.51,2.71l6.76,1.35c-1.81-.5-3.64-1-5.44-1.49-22.9-6.27-23.15-6.44-23.5-7.11a1,1,0,0,1-.08-.73c.3-1.17.33-1.27,18.72,3.09-21.63-5.93-22.74-6.47-23.2-7.11a1.11,1.11,0,0,1-.09-.74c.18-.67.27-1,4-.1-2.69-.88-3.41-1.2-3.58-1.62a1,1,0,0,1-.09-.75c.12-.48.2-.78,1.69-.58-7.3-2.11-7.38-2.31-7.62-2.66a1,1,0,0,1-.09-.73c.32-1.23.32-1.23,35.48,5.18,7.14,1.31,14.72,2.69,20.93,3.79l-12-3.61-10.6-2.87c-30.11-8.08-35-9.56-35.82-10.49a.39.39,0,0,1-.1-.16l-.08-.16c-1.25-.45-1.34-.6-1.46-.82a1,1,0,0,1-.09-.73c.37-1.38.44-1.67,47.86,8.07,5.64,1.16,11.34,2.34,16.26,3.32-5.82-1.6-12.71-3.43-18.91-5.08-29.19-7.74-33.26-8.91-33.79-10a1,1,0,0,1-.09-.77c.34-1.35.38-1.49,35.83,6.45,8.15,1.82,17.36,3.88,24.47,5.39-8.42-2.42-20-5.58-29.52-8.19-30.16-8.24-30.31-8.35-30.68-9.07a1.05,1.05,0,0,1-.09-.74c.35-1.32.37-1.41,39,8.34l-2.52-.68c-32.25-8.77-33.85-9.4-34.37-10.18a1,1,0,0,1-.09-.75c.13-.49.21-.81,2-.52a.76.76,0,0,1,0-.21c.22-.84.32-1.24,7.9.61-2.34-.77-3-1.15-3.18-1.47a1,1,0,0,1-.1-.75c.13-.5.21-.79,2.18-.45-1.53-.56-2.1-.95-2.24-1.18a1.09,1.09,0,0,1-.09-.77c.34-1.36.36-1.4,38.36,8l10.62,2.62c-35.35-9.65-41-11.55-41.49-12.45a1.12,1.12,0,0,1-.1-.76c.34-1.31.35-1.36,40.41,7,7,1.44,14.32,3,20.59,4.26-4.93-1.36-10.47-2.87-15.76-4.3-34.52-9.38-39.17-10.83-39.56-11.79a1,1,0,0,1-.1-.76c.35-1.33.38-1.46,36,6.14,8.56,1.82,18.21,3.88,25.74,5.39-5.41-1.51-11.93-3.3-18.36-5.07-36.54-10-41.68-11.49-42.21-12.56a1.07,1.07,0,0,1-.1-.74c.33-1.26.33-1.26,32.8,6.82l4.87,1.21c-26.64-7.28-31.9-9-32.78-9.9a1.3,1.3,0,0,1-.12-.14,1.19,1.19,0,0,1-.09-.77c.22-.84.32-1.21,8.91.91-7.5-2.18-9.06-2.91-9.38-3.44a1,1,0,0,1-.09-.77c.34-1.36.39-1.54,41.64,7.55,6.1,1.34,12.51,2.75,18.19,4-4.49-1.25-9.45-2.61-14.36-4-36.53-10.07-40.77-11.44-41.28-12.29a1.11,1.11,0,0,1-.09-.74c.37-1.43.44-1.69,42.76,7.42,11.17,2.4,24.06,5.18,32.54,6.82-8.14-2.36-20.47-5.7-31.19-8.59-32.36-8.76-35.82-9.82-36.34-10.74a1.05,1.05,0,0,1-.09-.76c.36-1.36.43-1.65,45.66,7.69,6.83,1.41,14.06,2.9,20.16,4.12-5-1.4-10.91-3-16.68-4.58-35.44-9.71-40.45-11.23-41-12.2a1,1,0,0,1-.09-.75c.19-.74.28-1.08,5.67.22a.57.57,0,0,1-.25-.27,1.09,1.09,0,0,1-.11-.77c.08-.27.14-.49.5-.57,0-.08-.11-.14-.15-.21a1,1,0,0,1-.09-.74c.35-1.35.39-1.53,43.62,7.66l18.54,3.92c-7.55-2.14-17-4.73-25.35-7-32-8.8-35.51-9.9-36.16-10.59a.76.76,0,0,1-.11-.16,1,1,0,0,1-.08-.74c.34-1.33.36-1.43,40.45,6.38,11,2.14,22.8,4.45,30.85,5.9-7.41-2.13-18-5-27.28-7.53-29.68-8.08-30.92-8.53-31.39-9.3a1.11,1.11,0,0,1-.09-.74c.35-1.29.35-1.34,40,6.55,8,1.59,16.46,3.29,23.3,4.61-6.11-1.72-13.53-3.77-20.51-5.7-32.7-9-36.32-10.18-37-10.89a.33.33,0,0,1-.1-.14,1,1,0,0,1-.09-.73c.31-1.21.32-1.25,29.49,6.31l-1.34-.38c-32.1-8.78-32.26-8.91-32.63-9.64a1,1,0,0,1-.09-.74c.33-1.31.35-1.4,42.15,7.2,10.09,2.09,20.91,4.31,29,5.89-7.3-2.08-16.88-4.71-25.85-7.17-35-9.61-36.94-10.19-37.31-11.07a.94.94,0,0,1-.1-.73c.33-1.28.33-1.28,39.29,7.9,6.63,1.56,13.84,3.25,20.43,4.78l-14.93-4.15c-35.58-9.86-37.16-10.51-37.65-11.18a1,1,0,0,1-.09-.74c.22-.85.32-1.22,9.2,1-5.64-1.62-6-1.88-6.21-2.3a1,1,0,0,1-.1-.73c.35-1.33.37-1.41,35.28,6.5,7.07,1.6,14.87,3.37,21.61,4.85l-11.68-3.17c-31.81-8.62-37.71-10.43-38.65-11.43l-.1-.14a.73.73,0,0,1-.09-.26c-4.81-1.44-5.8-2-6-2.34a1.09,1.09,0,0,1-.1-.75c.36-1.38.4-1.52,42.54,8.41,8.84,2.08,18.23,4.3,25.81,6-8.37-2.39-18.89-5.26-27.73-7.69-30.35-8.32-30.41-8.48-30.7-9.07a1.05,1.05,0,0,1-.09-.74c.33-1.25.38-1.45,27.6,5.6-22.71-6.2-23.87-6.72-24.31-7.37a1.15,1.15,0,0,1-.12-.66c-1.1-.43-1.52-.71-1.63-.95a1,1,0,0,1-.09-.75c.29-1.15.39-1.49,23.84,4.39-23.12-6.45-24.31-6.94-24.57-7.58a1.05,1.05,0,0,1-.09-.72c.22-.85.32-1.21,8.8.93-.22-.15-.3-.23-.35-.34a1,1,0,0,1-.1-.73c.33-1.24.33-1.24,33.09,6,8.85,2,18.74,4.16,26.85,5.89-4.15-1.16-8.72-2.42-13.25-3.66-38.31-10.51-41.77-11.66-42.33-12.61a1.11,1.11,0,0,1-.09-.76.78.78,0,0,1,.26-.48l-.07-.11a1.08,1.08,0,0,1-.09-.77c.36-1.39.44-1.68,47.06,8.89,3.24.74,6.51,1.49,9.65,2.19l-13-3.53c-33-8.92-39.07-10.76-40-11.78a.94.94,0,0,1-.1-.14,1.08,1.08,0,0,1-.09-.77c.17-.63.25-1,4.09-.22-2.06-.72-2.7-1.09-2.92-1.44a1.06,1.06,0,0,1-.1-.76c.35-1.35.35-1.37,39.6,8.13l11.43,2.75-14.46-4c-33.58-9.25-34.86-9.61-35.26-10.46a1.09,1.09,0,0,1-.09-.73c.36-1.36.39-1.47,38.36,6.82,10.8,2.35,23.19,5.06,31.73,6.77-7.64-2.18-18.42-5.08-27.86-7.62-30.93-8.31-36.42-10-37.32-10.93l-.11-.13a1.09,1.09,0,0,1-.09-.77c.37-1.43.45-1.74,46.06,7.94,8.36,1.77,17.28,3.66,24.23,5.08-8.11-2.33-19-5.34-28.6-8-33.62-9.27-33.77-9.44-34.07-10.09a1.06,1.06,0,0,1-.09-.74c.33-1.27.33-1.27,37.37,7.27l20.08,4.61-11-3.28-7.54-2.07c-28.31-7.76-31.1-8.66-31.65-9.24l-.06-.07c-4.45-1.38-5-1.73-5.29-2.12a1.12,1.12,0,0,1-.09-.74c.19-.72.28-1,6.25.46a1,1,0,0,1-.23-.26,1.08,1.08,0,0,1-.1-.75c.22-.83.33-1.23,9,.87-5.57-1.66-6.7-2.27-6.93-2.64a1,1,0,0,1-.1-.75c.34-1.29.34-1.29,34.06,6.93,7.48,1.82,15.68,3.82,23,5.55l-17.08-4.71c-36.45-10-38.2-10.67-38.54-11.44a1,1,0,0,1-.09-.74c.2-.79.31-1.19,7.3.52a2.19,2.19,0,0,1-.16-.2,1,1,0,0,1-.09-.74c.32-1.23.32-1.23,32.83,6.71,7.47,1.82,16.07,3.92,23.75,5.76l-9.43-2.75-9.6-2.62c-29.45-8-32.73-9.07-33.37-9.75a.66.66,0,0,1-.11-.16,1,1,0,0,1-.09-.75,1,1,0,0,1,.42-.57,1,1,0,0,1,.23-.09.62.62,0,0,1,.54-.46c-1-.41-1.39-.69-1.51-.91a1.06,1.06,0,0,1-.09-.76c.32-1.2.32-1.2,31.61,5.24,12.23,2.53,27.31,5.63,37.35,7.51-6.15-1.75-14.08-3.92-21.51-6-37-10.16-38.93-11-39.39-11.72a1.05,1.05,0,0,1-.09-.76c.34-1.34.37-1.45,38.21,7.42,4.64,1.09,9.47,2.23,14,3.28l-1.53-.45-14.67-4c-32.55-8.84-36.28-10.1-36.68-10.88a1,1,0,0,1-.09-.74,1,1,0,0,1,.43-.59c.31-.19.85-.23,4.49.72.92-.68,5.83.34,39.39,7.53,6.67,1.43,13.69,3,19.79,4.22l-17.12-4.77c-35.44-9.82-39.25-11-39.92-11.75a.37.37,0,0,1-.1-.14,1,1,0,0,1-.1-.73c.33-1.29.33-1.29,31.16,6.67,6,1.56,12.86,3.32,19.29,5L1353,652.51c-30.47-8.27-33.2-9.27-33.64-10a1.11,1.11,0,0,1-.09-.74c.36-1.37.37-1.44,39.08,8.28l10.13,2.53-.31-.08c-.46-.14-.94-.26-1.41-.39-19.61-5.36-31-8.52-37.5-10.49-10.86-3-11.53-3.4-11.72-3.88a1,1,0,0,1-.1-.73,1.08,1.08,0,0,1,.46-.61c.38-.23,1.48-.14,4.72.67,3.48.39,13.29,2.65,41.83,9.41l13.58,3.2-8.8-2.43c-37.37-10.3-41.31-11.62-41.77-12.41a1,1,0,0,1-.09-.75c.16-.64.27-1,4-.26a1.12,1.12,0,0,1,0-.45c.33-1.32.34-1.34,36.52,6.48,12.72,2.74,27.37,5.91,37.08,7.82-7.2-2-17.09-4.71-26.29-7.21-36.34-9.84-43-11.85-44-12.94a.41.41,0,0,1-.1-.14,1,1,0,0,1-.1-.76c.37-1.38.41-1.56,50.67,9.34,12.72,2.76,26.43,5.73,36.24,7.74-8.09-2.29-18.75-5.25-28.72-8-43.85-12.11-49.53-13.91-50.37-14.81a.9.9,0,0,1-.1-.12,1.05,1.05,0,0,1-.09-.76l.06-.17c-1.28-.5-1.78-.79-1.94-1.08a1,1,0,0,1-.09-.75c.18-.66.26-1,4.81.08L1345,618a1,1,0,0,1-.09-.73c.41-1.56.5-1.93,56.47,13.24,10.19,2.76,21,5.68,30.14,8.09-11.31-3.2-25.17-7-37.58-10.44-44.56-12.29-50.78-14.16-51.63-15.07a.42.42,0,0,1-.08-.12.93.93,0,0,1-.1-.73c.44-1.66.6-2.29,72.42,16.13,12.91,3.3,26,6.67,35.9,9.1-13.34-3.87-32.92-9.24-50-13.93-46.21-12.68-51-14.11-51.51-15.07a1,1,0,0,1-.09-.74,1,1,0,0,1,.17-.35,1.6,1.6,0,0,1-.53-.47,1.12,1.12,0,0,1-.11-.78c.45-1.71.6-2.29,70.92,17.14,13.91,3.84,28.81,8,40,10.91-13.68-4-33.2-9.27-50.29-13.93-45.92-12.52-50.56-14-51-14.9a1,1,0,0,1-.08-.74c.38-1.54.47-1.9,65.48,13.68,18.27,4.38,38.18,9.15,49.84,11.7-12.11-3.62-33.67-9.46-53.41-14.82-46.95-12.73-57.72-15.85-59-17.18a.47.47,0,0,1-.09-.12,1.18,1.18,0,0,1-.1-.76c.4-1.53.46-1.77,62.06,15.44,20.16,5.64,43.66,12.2,57.52,15.76-15.51-4.7-43.72-12.37-66.1-18.47-45.73-12.45-50.23-13.81-50.78-14.75a1,1,0,0,1-.08-.74c.38-1.47.42-1.66,62.13,14.79,19.07,5.09,41,11,55.64,14.62-13.79-4-34.39-9.68-53.46-14.93-55-15.18-62.36-17.39-62.95-18.46a1.07,1.07,0,0,1-.09-.75c.42-1.59.53-2,71.28,16,17.3,4.43,36,9.21,48.39,12.16-12.31-3.55-31.16-8.66-48.57-13.39-51.76-14-65-17.86-66.38-19.39l-.1-.12a1.2,1.2,0,0,1-.09-.79c.21-.87.35-1.38,11.12,1.35-10-3-14.57-4.58-15.36-5.42l-.08-.12a1.17,1.17,0,0,1-.1-.78c.4-1.58.51-2,75.23,16.81,19.69,5,41.11,10.35,54.17,13.41-12.59-3.69-33.23-9.24-52.21-14.37-50.52-13.62-67.27-18.35-68.92-20.12a.41.41,0,0,1-.1-.14,1.18,1.18,0,0,1-.11-.78c.5-1.91,4.57-1.53,86.67,19.17,14.29,3.61,28.85,7.28,39.47,9.86-14.35-4.17-36.44-10.22-56.85-15.8-60.34-16.5-73.38-20.4-74-21.7a1.13,1.13,0,0,1-.09-.77c.42-1.62.54-2.11,75.13,16.49,24.48,6.11,51.33,12.81,65.11,15.81-13.36-4-39.53-11.2-63.38-17.74-57.52-15.76-71.25-19.75-72.59-21.19a.35.35,0,0,1-.08-.1,1.08,1.08,0,0,1-.09-.77c.51-2,4.87-1.45,93,22.4,16.48,4.47,33.29,9,45,12.06-17.29-5.15-46.69-13.15-71.93-20-57.31-15.61-70.25-19.35-71.57-20.76l-.09-.11a1,1,0,0,1-.08-.77c.39-1.52.46-1.8,74.9,18.76,20.44,5.64,42.35,11.7,58.68,16-6.46-1.86-14.81-4.3-25.58-7.48-8.62-2.34-17.6-4.75-26.29-7.09-56.26-15.14-74.88-20.38-76.69-22.31l-.1-.14a1.22,1.22,0,0,1-.1-.8,1,1,0,0,1,.29-.48,1.23,1.23,0,0,1,0-.6c.1-.41.19-.74,1.33-.7-3.84-1.25-5.26-1.9-5.42-2.27a1.05,1.05,0,0,1-.09-.76c.37-1.41.42-1.6,52.41,11.4,2.39.6,4.79,1.21,7.17,1.79l-9.13-2.49c-39-10.64-44.47-12.42-45-13.32a1.07,1.07,0,0,1-.13-.53c-5.41-1.61-6-1.93-6.16-2.33a1,1,0,0,1-.1-.73c.34-1.31.36-1.39,40.92,6.28,9,1.71,18.63,3.53,26,4.86l-18-4.94c-35.37-9.65-41.81-11.61-42.76-12.63a.61.61,0,0,1-.1-.14,1.08,1.08,0,0,1-.1-.75c.34-1.32.34-1.32,32.1,6.42,7.76,1.91,16.39,4,23.73,5.74-7-2-15.14-4.21-22.5-6.24-33-9.07-33.07-9.18-33.43-9.91a1.09,1.09,0,0,1-.09-.73c.35-1.34.37-1.39,33,6.52l7,1.71-5.47-1.48c-28.9-7.78-34.08-9.36-34.94-10.29a.42.42,0,0,1-.11-.13,1.11,1.11,0,0,1-.1-.76c.17-.67.27-1,5.05,0a.79.79,0,0,1-.48-.43,1,1,0,0,1-.09-.74c.31-1.18.31-1.18,28.65,3.87,9.08,1.62,19.45,3.47,26.78,4.66-5.71-1.62-13.28-3.7-20.35-5.63-28.38-7.77-29.69-8.22-30-9a1,1,0,0,1-.09-.74c.1-.42.18-.73,1.28-.68-.86-.36-1.22-.55-1.32-.83a1.05,1.05,0,0,1-.1-.76c.34-1.3.35-1.37,33.58,5.72,6.93,1.48,14.7,3.14,21,4.44-7.17-2-16.4-4.56-24.59-6.79-28.82-7.87-29-8-29.33-8.7a1.09,1.09,0,0,1-.09-.73c.28-1.13.28-1.13,28.35,3.93,9.28,1.68,20.59,3.72,28.54,5-6.55-1.87-15.43-4.32-23.25-6.47-28.74-7.92-28.86-8.08-29.17-8.7a1.06,1.06,0,0,1-.09-.74c.34-1.31.37-1.39,34.46,6.27,5.83,1.32,12.22,2.75,17.94,4L1425.21,503c-31.63-8.68-33.15-9.2-33.42-10a1,1,0,0,1-.1-.73c.34-1.29.34-1.31,30.87,5.37l12.5,2.71-3.32-.9c-25.82-7-29.6-8.19-30.34-9a1,1,0,0,1-.12-.16,1,1,0,0,1-.09-.74c.32-1.25.33-1.29,27.21,5.25-21.67-5.89-21.58-6-21.86-6.59a1.1,1.1,0,0,1-.09-.74c.32-1.21.32-1.21,32.93,4.88,6.09,1.13,12.56,2.33,17.94,3.31-6.12-1.74-13.66-3.83-20.41-5.69-27.2-7.52-27.43-7.69-27.8-8.29a1.05,1.05,0,0,1-.09-.74c.3-1.08.34-1.26,19.32,3.2-8.37-2.35-9.73-2.88-10-3.52a1.07,1.07,0,0,1-.09-.75c.34-1.27.35-1.32,26.78,4.11,3.27.68,6.77,1.41,10.13,2.09l-5.2-1.42c-23.44-6.34-24.64-6.87-25.12-7.56a1.11,1.11,0,0,1-.09-.74c.17-.59.24-.88,3.24-.29-3-.93-3.33-1.21-3.58-1.57a1.12,1.12,0,0,1-.09-.74c.24-.93.31-1.19,9.69,1.12-.07,0-.08-.09-.13-.14-5.86-1.69-5.94-1.86-6.11-2.21a1,1,0,0,1-.09-.74c.26-1,.26-1,21,1,4.44.44,9.21.9,12.6,1.2l.11-.08.39.13h0l-.41-.13.4-.83c.22.1,1.55.45,2.42.69,2.23.6,2.24.56,2.46,1a1,1,0,0,1,.07.69c-.23,1-.23,1-18.23-.8-3.91-.38-8.28-.81-11.92-1.14,1.77.42,5,1.31,10.92,3.06l3,.82c22.39,6.19,22.37,6.28,22.64,6.84h0c.58.25.65.39.75.57a1.06,1.06,0,0,1,.09.74c-.17.7-.26,1-4.47.09,2.19.69,2.41.94,2.58,1.21a1.17,1.17,0,0,1,.09.74c-.17.64-.25.93-3.92.16,3.4,1,3.53,1.19,3.72,1.54a1,1,0,0,1,.09.73c-.33,1.27-.34,1.35-27.35-4.21-4-.83-8.39-1.73-12.37-2.52,4.48,1.24,9.49,2.58,13.84,3.75,19.48,5.25,19.61,5.35,19.93,6a1.11,1.11,0,0,1,.09.74c-.29,1.16-.29,1.16-26.16-5l-1.83-.44c32,8.87,32.2,9,32.55,9.76a1,1,0,0,1,.09.72c-.31,1.19-.31,1.19-31.74-4.66-6.1-1.13-12.56-2.34-18-3.33l9.89,2.69c27.9,7.59,29.2,8.22,29.65,8.9a1.06,1.06,0,0,1,.09.74c-.32,1.26-.34,1.31-27.56-5.32,21.65,5.86,21.86,6,22.2,6.65a1.11,1.11,0,0,1,.09.74c-.34,1.29-.35,1.37-33.2-5.81l-12.56-2.74c5.13,1.43,10.81,3,16,4.43,30.18,8.28,30.36,8.41,30.69,9.14a1.05,1.05,0,0,1,.09.74c-.34,1.32-.37,1.46-36.65-6.68-4.61-1-9.43-2.12-13.91-3.11l9.53,2.62c31.77,8.76,33.23,9.31,33.57,10a1,1,0,0,1,.1.73c-.34,1.3-.37,1.44-39.7-5.66-4.84-.87-9.74-1.76-14-2.51,4.85,1.34,10.49,2.88,15.84,4.34,34,9.26,37.07,10.28,37.63,11.23a1.2,1.2,0,0,1,.09.75c-.34,1.31-.37,1.42-35-6-6.47-1.38-13.33-2.84-19.06-4,6,1.67,13.16,3.62,19.61,5.36,25.42,6.86,26.51,7.29,27,8a1.11,1.11,0,0,1,.08.74c-.12.5-.2.79-1.84.54,1.61.56,1.89.76,2,1a.94.94,0,0,1,.1.73c-.34,1.31-.38,1.48-37.59-5.15-5.28-.94-10.86-1.93-15.59-2.75,5.8,1.64,13,3.63,19.84,5.51,33.08,9.12,34.59,9.64,34.85,10.39a1,1,0,0,1,.1.73c-.18.69-.26,1-5.49-.28.76.33,1,.52,1.15.73a1.06,1.06,0,0,1,.09.76c-.34,1.33-.37,1.44-34.61-6.87l-2.77-.68,4.17,1.16c35.74,9.84,39.84,11.07,40.31,12a1,1,0,0,1,.09.74c-.37,1.42-.44,1.67-42.48-8.58-2.66-.66-5.35-1.32-8-1.95,6.5,1.8,13.51,3.72,19.68,5.4,30.35,8.28,30.51,8.46,30.82,9.1a1,1,0,0,1,.1.73c-.34,1.31-.35,1.36-39.66-6.08-9.94-1.89-20.62-3.91-28.39-5.29,7.81,2.22,18.69,5.22,28.81,8,42.31,11.67,47.17,13.12,47.7,14.13a1.06,1.06,0,0,1,.12.43c4.28,1.29,5.26,1.75,5.5,2.21a1,1,0,0,1,.1.74c-.34,1.34-.34,1.34-41.49-8.94-11.61-2.91-24.73-6.19-34.75-8.6,15.22,4.43,39.08,11,61.1,17.13,63.18,17.48,76.12,21.26,76.83,22.52a1.07,1.07,0,0,1,.1.74c-.13.53-.24.9-3,.37a5.63,5.63,0,0,1,1.8,1,1.69,1.69,0,0,1,.1.27c3,1.06,4.46,1.76,4.75,2.26a1.24,1.24,0,0,1,.1.8c-.3,1.17-.45,1.73-29.85-6.14,20.94,5.93,29.27,8.73,29.82,9.8a1.25,1.25,0,0,1,.11.8c-.39,1.49-.43,1.64-61.73-14.95-28.48-7.72-65-17.62-82-21.52,13.35,4,39.15,11.09,62.69,17.54,57.91,15.86,71.72,19.88,73.08,21.33a.76.76,0,0,1,.08.11,1.11,1.11,0,0,1,.1.76c-.43,1.66-.56,2.16-75.85-16.63-24.27-6.06-50.9-12.7-64.54-15.67,13.45,4.07,40.11,11.37,64.4,18,58,15.85,71.8,19.89,73.17,21.36a.28.28,0,0,1,.09.1,1.12,1.12,0,0,1,.09.76c-.37,1.46-.4,1.58-56.83-12.64-28-7.08-64.48-16.26-78.9-19.11,11.57,3.67,38.14,10.85,62.22,17.34,48.32,13,63.37,17.28,64.87,18.89a.28.28,0,0,1,.1.12,1.09,1.09,0,0,1,.1.77c-.4,1.52-.46,1.79-67.88-15.19-24.43-6.14-51.25-12.9-64.85-15.92,13.86,4.26,42,11.93,65.89,18.42,50.08,13.62,61.45,16.91,62.67,18.21a.24.24,0,0,1,.08.1,1.08,1.08,0,0,1,.09.77c-.24.94-.39,1.52-13.57-1.84,6.68,2,8.9,3,9.23,3.53a1.15,1.15,0,0,1,.11.77c-.39,1.52-.47,1.8-63.72-14.34-19.18-4.89-41.37-10.56-55.51-13.89,12.33,3.56,30.94,8.69,48.14,13.44,55.8,15.38,69.08,19.25,70.34,20.6a.34.34,0,0,1,.07.11,1,1,0,0,1,.09.75c-.38,1.48-.49,1.92-59.18-13.68,37.39,10.27,52.15,14.67,53.68,16.3a.47.47,0,0,1,.09.12,1.23,1.23,0,0,1,.11.8c-.24.91-.38,1.43-13.41-1.89,2.94,1,4.07,1.6,4.37,2a1.18,1.18,0,0,1,.09.78c-.38,1.51-.46,1.78-61.3-12.81-18.2-4.36-37.93-9.1-50.63-11.9,9.71,2.75,23.53,6.52,37.08,10.22,52.89,14.42,67,18.56,68.5,20.12a.53.53,0,0,1,.1.12,1.16,1.16,0,0,1,.09.78c-.4,1.54-.48,1.87-59.29-14.38-21-5.82-45.75-12.64-59.28-15.94,7.67,2.05,20.64,5.79,42.13,12.1,8.11,2.23,16.27,4.44,23.75,6.49,43.66,11.89,45.75,12.51,46.15,13.4a1,1,0,0,1,.1.74,1,1,0,0,1-.45.6c-.3.18-1.29.11-3.59-.41a.29.29,0,0,1,0,.1c-.38,1.46-.42,1.64-53.51-12C1394,625,1370.52,619,1356.27,615.75c10.08,2.89,24.62,6.89,38.1,10.62,51.16,14.1,60.06,16.79,61.14,17.94a.42.42,0,0,1,.08.12,1,1,0,0,1,.09.75c-.33,1.3-.45,1.73-32.45-6.83,15.83,4.48,20.56,6.2,20.94,7a1.09,1.09,0,0,1,.1.77c-.15.6-.27,1-3.73.39a1.14,1.14,0,0,1,0,.66c-.16.61-.25,1-4.47,0l0,.16c-.36,1.39-.4,1.58-51.19-9.43-13.82-3-28.79-6.25-38.57-8.22,8.77,2.53,21.67,6,32.89,9.07,31.88,8.62,36.67,10.08,37.48,10.94l.09.13a1.1,1.1,0,0,1,.1.75c-.37,1.41-.46,1.76-49.25-8.79-7.58-1.64-15.29-3.3-21.54-4.61,6.55,1.83,14.6,4,21.79,5.92,29.43,7.92,32.55,8.87,32.94,9.77a1,1,0,0,1,.1.76c-.07.26-.12.47-.39.58,3.34,1,3.42,1.17,3.59,1.52a1.09,1.09,0,0,1,.09.73c-.34,1.33-.35,1.36-40.11-8l-14.57-3.45c4.12,1.25,8.79,2.68,14.07,4.27,12.51,3.46,20.5,5.71,25.6,7.22,8.75,2.48,9,2.64,9.24,3.14a1,1,0,0,1,.09.72,1,1,0,0,1-.43.59.87.87,0,0,1-.52.12c-1.25.5-7.14-.9-39.61-9.05l-1-.25c27.85,7.56,32.94,9.14,33.78,10a.77.77,0,0,1,.09.13,1.05,1.05,0,0,1,.1.76c-.31,1.19-.41,1.6-26.09-4.92,24.37,6.79,24.63,7.07,25,7.6a1,1,0,0,1,.09.74c-.32,1.29-.33,1.32-38.07-6.78-8.17-1.75-16.86-3.61-23.9-5.07,2.42.71,5.16,1.5,8.23,2.41,6.25,1.74,13.06,3.6,19.32,5.31,31.59,8.63,32.76,9,33.14,9.8a1.06,1.06,0,0,1,.09.72,1,1,0,0,1-.44.59c-.39.24-1.53.13-6.44-1.18-1.1.56-6.21-.61-35.38-7.45-6.17-1.45-12.93-3-19-4.42,6.61,1.85,14.18,3.93,21.07,5.83,32.5,9,32.65,9.11,33,9.8a1,1,0,0,1,.08.73c-.36,1.4-.45,1.74-49.73-8.42-6.29-1.3-12.67-2.61-18-3.67,8.89,2.56,21.2,5.91,31.33,8.67,31.28,8.51,31.21,8.6,31.54,9.3a1.1,1.1,0,0,1,.09.74c-.17.64-.27,1-3.86.27,2.17.73,2.85,1.14,3,1.44a1.11,1.11,0,0,1,.1.76c-.36,1.36-.42,1.59-45.11-9.32.78.21,1.57.44,2.34.64,34,9.33,35.76,10,36,10.72a1,1,0,0,1,.09.74c-.15.63-.25,1-3.75.25,1.1.41,1.33.64,1.42.83a1,1,0,0,1,.09.74c-.34,1.39-.4,1.6-45-9.26L1317,679.4l12.3,3.37c34.21,9.34,35.77,10,36.3,10.74a1.11,1.11,0,0,1,.09.74c-.31,1.14-.34,1.32-21.72-4.34,14.29,4,14.54,4.21,14.78,4.72a1,1,0,0,1,.1.73c-.14.52-.23.85-2.36.49,1.07.4,1.2.54,1.3.77a2,2,0,0,1,.1.22,1.67,1.67,0,0,1,.62.5,1,1,0,0,1,.08.75c-.34,1.32-.35,1.4-42.49-8.32l-12.55-2.88c3.35.94,6.8,1.89,10.16,2.81,37.15,10.23,41.09,11.56,41.54,12.35a1.08,1.08,0,0,1,.09.75c-.35,1.33-.38,1.44-38.06-6.56-12.14-2.57-26.2-5.55-35.25-7.27,7.25,2.07,17.76,4.9,27.51,7.52,33.67,9,38.17,10.55,38.74,11.48a1.08,1.08,0,0,1,.09.77c-.36,1.39-.42,1.64-43.51-7.76-7.43-1.62-15.3-3.34-21.86-4.72,6,1.67,13,3.61,19.66,5.44,37.66,10.36,39.58,11.2,40,11.9a1.08,1.08,0,0,1,.09.75c-.33,1.32-.33,1.32-38-7.78l-16.78-4.05c5.67,1.56,11.8,3.22,17.46,4.75,30.34,8.21,31.52,8.81,32,9.45a1,1,0,0,1,.08.76c-.18.72-.27,1-5.31-.13,6.23,1.81,7.37,2.35,7.59,2.79a1.08,1.08,0,0,1,.1.75c-.33,1.23-.33,1.23-32.16-6-11.32-2.57-25.23-5.72-34.71-7.71,8.23,2.37,19.91,5.54,30.11,8.3,30.51,8.26,31.86,8.79,32.34,9.54a1.1,1.1,0,0,1,.09.76,1,1,0,0,1-.43.56c-.16.1-.35.15-.91.09a1.19,1.19,0,0,1,0,.33c-.36,1.36-.42,1.57-44.79-8.27L1277,715.76c4.8,1.34,10,2.76,14.74,4.08,32.22,8.88,32.36,9,32.75,9.75a1.06,1.06,0,0,1,.09.72c-.18.7-.28,1.07-5.18-.06,1.64.55,1.74.7,1.87,1a1,1,0,0,1,.09.72c-.33,1.27-.33,1.27-30.78-6.48l-14.86-3.77,13.34,3.64c31.9,8.66,35.13,9.7,35.66,10.56a1,1,0,0,1,.09.75,1,1,0,0,1-.45.59c-.3.18-1,.19-3-.25-.31.84-1.53.83-16.38-3,14.34,4.05,17.17,5.05,17.55,5.77a1.09,1.09,0,0,1,.1.75c-.36,1.38-.4,1.52-42.54-8.41-7.06-1.67-14.48-3.41-21-4.93l3.82,1.1,10.63,2.87c33.08,8.93,39.19,10.79,40.15,11.81a.94.94,0,0,1,.1.14,1.11,1.11,0,0,1,.09.78.93.93,0,0,1-.43.56c-.15.1-.27.17-.79.11-.39,1.17-2.2,1-40-7.61-4.48-1-9.14-2.07-13.52-3l8.14,2.2c32.42,8.79,38.42,10.61,39.38,11.64a.53.53,0,0,1,.1.14,1,1,0,0,1,.1.77c-.22.84-.32,1.21-8.92-.92,11.62,3.31,12.46,3.74,12.76,4.23a1.1,1.1,0,0,1,.09.74c-.35,1.31-.36,1.37-44.08-8.92l-13.57-3.2,12.53,3.45c34.11,9.38,38,10.61,38.67,11.36a.54.54,0,0,1,.1.16,1,1,0,0,1,.1.74c-.33,1.3-.36,1.41-42.78-7.32-9.14-1.87-18.89-3.88-26.57-5.4,5.35,1.5,11.68,3.23,17.92,4.94,37.5,10.26,42.52,12,43,12.8a1,1,0,0,1,.1.75c-.26,1-.33,1.28-14.91-2.4,15,4.23,15.19,4.42,15.46,5a1,1,0,0,1,.09.73c-.32,1.27-.33,1.29-38.32-6.29-8.68-1.73-18-3.58-25.23-5,5.31,1.48,11.6,3.19,17.53,4.79,32.59,8.87,37,10.31,37.46,11.17a1.11,1.11,0,0,1,.1.76c-.34,1.34-.38,1.48-41.9-6.62-9.69-1.89-20.09-3.92-27.74-5.32,6.86,1.94,15.93,4.43,24.41,6.76,34.51,9.5,39.59,11.05,40.4,11.91l.1.13a1,1,0,0,1,.08.73c-.33,1.29-.33,1.29-34.57-6-9.45-2-20.12-4.28-28.39-6,5.42,1.52,11.8,3.28,17.83,4.94,35,9.63,36.88,10.28,37.17,11.07a.91.91,0,0,1,.09.74c-.12.51-.22.86-2.18.57a1.08,1.08,0,0,1,0,.36c-.13.51-.23.85-2.11.6,1.94.64,2,.8,2.19,1.09a1.09,1.09,0,0,1,.09.74c-.35,1.28-.36,1.34-36.26-6.07-11.7-2.42-25.17-5.21-34.16-6.89,7,2,16.69,4.6,25.71,7,33.68,9.11,39.89,11,40.85,12a.53.53,0,0,1,.1.14,1.08,1.08,0,0,1,.09.77c-.36,1.4-.43,1.69-43.18-7.51-10.92-2.34-22.71-4.88-30.89-6.49,8.19,2.36,20,5.62,30.29,8.45,32.05,8.81,32.19,9,32.47,9.61a1.06,1.06,0,0,1,.09.74c-.34,1.31-.36,1.39-37.19-6.72-9.6-2.11-20.52-4.52-28.56-6.19,7.72,2.2,18.14,5,27.32,7.49,32.17,8.67,35.87,9.8,36.39,10.76a1.05,1.05,0,0,1,.09.76c-.26,1.05-.36,1.39-16.6-2.82,10.49,2.93,10.58,3.08,10.82,3.58a1,1,0,0,1,.09.73c-.36,1.38-.4,1.52-42.56-9l-.27-.07c3.59,1,7.19,2,10.63,2.93,31.4,8.6,31.55,8.76,31.85,9.41a1.11,1.11,0,0,1,.09.74c-.36,1.37-.43,1.62-40.11-6.84-8.14-1.73-16.85-3.59-23.5-4.93,7.77,2.23,18.49,5.14,27.91,7.69,30.09,8.17,31.58,8.69,31.9,9.44a1,1,0,0,1,.1.75c-.33,1.28-.33,1.28-37.63-6.5-9.36-1.95-20-4.17-27.84-5.72,9.17,2.67,22.51,6.31,33.41,9.28,28.5,7.78,28.53,7.92,28.82,8.5a1,1,0,0,1,.08.73c-.36,1.4-.41,1.57-44-9.2L1190,810.76l9.29,2.5c30.52,8.22,33.72,9.36,34.26,10.16a1.05,1.05,0,0,1,.09.76c-.13.49-.21.83-2.11.56,1.16.43,1.4.69,1.51.88a1.06,1.06,0,0,1,.09.74c-.22.88-.33,1.29-9.32-.93,6.81,2,6.9,2.16,7.07,2.53a1.11,1.11,0,0,1,.09.72c-.12.44-.2.75-1.44.62a.58.58,0,0,1,0,.32c-.31,1.24-.34,1.34-30-6.14,22.92,6.34,26.83,7.73,27.32,8.48a1.05,1.05,0,0,1,.09.76c-.35,1.35-.4,1.56-37.79-6.81-7.29-1.64-15-3.37-21.32-4.73,6.11,1.7,13.52,3.66,20.17,5.43,27.19,7.22,32.16,8.72,33.06,9.69a.79.79,0,0,1,.12.15,1.11,1.11,0,0,1,.09.78c-.31,1.17-.31,1.17-31.39-5.21-10.38-2.13-22.9-4.7-32.33-6.51,3.23.93,7.28,2.13,12.31,3.64l7.7,2.12c38.88,10.72,44.07,12.36,44.9,13.24a.71.71,0,0,1,.1.14,1.13,1.13,0,0,1,.09.75,1.05,1.05,0,0,1-.45.58c-.41.25-1.52.15-6.29-1.15-2,.13-8.91-1.13-34.59-5.81-7.39-1.36-15.25-2.79-21.58-3.9l19,5.3c36.52,10.17,37,10.38,37.32,11.12a1,1,0,0,1,.09.74c-.19.75-.27,1.07-6-.32l0,0a1,1,0,0,1,.1.75c-.11.43-.19.72-1.14.69,1.55.5,1.6.63,1.73.87a1,1,0,0,1,.09.73,1,1,0,0,1-.43.58c-.3.18-.49.29-4.12-.7-.95.36-4.39-.37-18.82-3.79,14.14,3.89,14.23,4,14.52,4.57a1.08,1.08,0,0,1,.09.73c-.33,1.23-.33,1.23-23.78-3.43l-.62-.13,2,.55c18.92,5.24,18.86,5.33,19.16,5.82a1,1,0,0,1,.08.73c-.23.95-.23.95-13.48.41l-5.94-.25c1.52.43,3.15.88,4.66,1.28,10.52,2.88,10.52,2.93,10.77,3.39a1,1,0,0,1,.08.73c-.25.92-.25.92-9.23-.45l-1.62-.24a.68.68,0,0,1,0,.14c6.06,1.74,6.08,1.75,5.85,2.66a.91.91,0,0,1-1.09.68l-.13-.05c-.4-.14-3.08-.9-5.45-1.57-3.38-1-5.2-1.49-6.17-1.86l-.17,0v0c-.77-.31-.91-.52-.88-.81-1.21-.35-1.28-.45-1.4-.72a.9.9,0,0,1-.09-.71c.21-.81.25-1,6.17-.1-8.92-2.45-8.9-2.56-8.66-3.51s.26-1,13.34-.42l6.37.25c-3.57-1-8.26-2.31-12.65-3.53C1163.62,850.92,1160,849.92,1159.29,849.16Zm258-251.64c-9.23-2.58-18.21-5.07-25.82-7.13C1399.07,592.52,1408,595,1417.34,597.52Zm60.35,14.87c-6.28-1.74-13.37-3.68-20.76-5.7C1464.31,608.74,1471.4,610.69,1477.69,612.39Z" transform="translate(-313.02 -13.91)"/><path class="cls-1" d="M416.89,415.08c-52.36,0-93.15-35.72-103.87-91l36.23-10.74c4.24,31.46,27,65.33,66.76,65.33,32.95,0,68.52-26.23,68.52-68.59,0-40.35-30.43-55-59.85-69.23l-21.91-10.09c-45.83-22-72.52-43.82-72.52-90.07,0-51.09,40.1-89.6,93.27-89.6,37,0,68.43,19.9,86.2,54.6L480.1,125.76c-14.86-27.19-31.51-38.27-57.48-38.27-27.14,0-55.25,20.42-55.25,54.59,0,30.24,30,44.54,52,55l22.3,10.37c50.68,23.47,80,47.18,80,98.92C521.65,367.32,475.63,415.08,416.89,415.08Z" transform="translate(-313.02 -13.91)"/><path class="cls-1" d="M746.64,409V285.34c0-36.75-3.3-67.19-43.75-67.19-47.73,0-51.74,44.81-51.74,86.8V409H615.79V24h35.36V175.09a19.37,19.37,0,0,0,8.79,16.38,17.27,17.27,0,0,0,17.84.48c9.83-5.54,21.1-8.34,33.51-8.34,30.37,0,70.71,9.87,70.71,95.21V409Z" transform="translate(-313.02 -13.91)"/><path class="cls-1" d="M895.6,409V189.68H931V409Zm17.69-275.32c-13.89,0-25.19-11.94-25.19-26.61s11.3-26.6,25.19-26.6,25.19,11.93,25.19,26.6S927.18,133.69,913.29,133.69Z" transform="translate(-313.02 -13.91)"/><path class="cls-1" d="M1150.65,415.08a88.77,88.77,0,0,1-47.35-13.32,17.43,17.43,0,0,0-9.27-2.7,17.17,17.17,0,0,0-4.76.68,18.32,18.32,0,0,0-11.12,9.25l-35.36,0V24h35.36V179.76a19.35,19.35,0,0,0,9.08,16.57,17.27,17.27,0,0,0,18.13-.06,85.62,85.62,0,0,1,44.85-12.66c57.89,0,99.9,48.67,99.9,115.73C1250.11,365.33,1207.36,415.08,1150.65,415.08ZM1144,218.15c-43.92,0-67.64,40.64-67.64,78.87,0,41.51,23.39,83.53,68.08,83.53,47.93,0,69.4-41.73,69.4-83.07C1213.86,259.27,1192,218.15,1144,218.15Z" transform="translate(-313.02 -13.91)"/><path class="cls-1" d="M1421.17,415.08c-56.69,0-99.45-49.55-99.45-115.26,0-67.34,42-116.21,99.9-116.21A85.15,85.15,0,0,1,1468,197.45a17.51,17.51,0,0,0,9.48,2.83,16.86,16.86,0,0,0,5-.75,18.34,18.34,0,0,0,11.23-9.83l35.38,0V409h-35.36a18.35,18.35,0,0,0-11.2-9.33,17.88,17.88,0,0,0-4.74-.65,17.3,17.3,0,0,0-9.38,2.76C1454.59,410.61,1438.71,415.08,1421.17,415.08Zm4.42-196.93c-43.92,0-67.64,40.64-67.64,78.87,0,41.51,23.39,83.53,68.08,83.53,47.93,0,69.41-41.73,69.41-83.07C1495.44,259.27,1473.57,218.15,1425.59,218.15Z" transform="translate(-313.02 -13.91)"/><path class="cls-1" d="M399.23,799.38V493.48H344V864.43H491.19V809h-82.9A9.34,9.34,0,0,1,399.23,799.38Z" transform="translate(-313.02 -13.91)"/><path class="cls-1" d="M704.77,631.31a9.2,9.2,0,0,1-5.67,4.92,8.09,8.09,0,0,1-2.41.37,8.69,8.69,0,0,1-4.74-1.43A94,94,0,0,0,640.85,620c-63.13,0-108.94,52.88-108.94,125.74,0,71.16,46.62,124.81,108.49,124.81,19.22,0,36.68-4.93,51.88-14.68a8.7,8.7,0,0,1,4.68-1.38,9.57,9.57,0,0,1,2.39.33,9.32,9.32,0,0,1,5.61,4.67l2.58,5H757.3V626l-50,0Zm.85,112.05c0,33.9-15.82,73.51-60.36,73.51-38.75,0-59-37.24-59-74,0-33.6,20.53-69.3,58.59-69.3C686.81,673.58,705.62,708.62,705.62,743.36Z" transform="translate(-313.02 -13.91)"/><path class="cls-1" d="M959.11,620a94.28,94.28,0,0,0-49.43,13.95,8.61,8.61,0,0,1-4.53,1.3,8.47,8.47,0,0,1-4.51-1.3,9.67,9.67,0,0,1-4.55-8.27V460.35H842.65v404.1l49.74-.05,2.58-4.93a9.37,9.37,0,0,1,5.63-4.66,8.2,8.2,0,0,1,2.33-.33,8.77,8.77,0,0,1,4.63,1.37,97.65,97.65,0,0,0,52,14.65c61.86,0,108.51-53.85,108.51-125.28C1068.06,672.63,1022.24,620,959.11,620Zm54.61,123.41c0,33.9-15.82,73.51-60.36,73.51-38.75,0-59-37.24-59-74,0-33.6,20.54-69.3,58.6-69.3C994.91,673.58,1013.72,708.62,1013.72,743.36Z" transform="translate(-313.02 -13.91)"/><path class="cls-1" d="M1613.26,23.24h-20.6V79.33h-8.83V23.24h-20.76V13.91h50.19ZM1691,79.33h-8.83V23.24h-.3l-21.19,56.09h-5.74l-20.61-56.09H1634V79.33h-8.83V13.91h14.86L1657.86,61l18.39-47.08H1691Z" transform="translate(-313.02 -13.91)"/><path class="cls-1" d="M348,945.06l29.54,72.05,29.66-72.05,16.49,90.72H414.4l-10.46-58.06h-.21l-26.21,61.59-26.09-61.59h-.22l-10.46,58.06h-9.27Z" transform="translate(-313.02 -13.91)"/><path class="cls-1" d="M482,1035.78h-8.62v-7.4h-.23a20.86,20.86,0,0,1-17.46,8.87c-14.89,0-24.26-13.32-24.26-28.11,0-15.25,9.17-28.35,24.36-28.35a21.55,21.55,0,0,1,17.36,9.1h.23v-7.61H482Zm-41.74-27.32c0,10.47,5.82,20.39,16.61,20.39,11.1,0,16.92-9.46,16.92-20.28s-6.36-19.36-17-19.36C446.68,989.21,440.21,998.43,440.21,1008.46Z" transform="translate(-313.02 -13.91)"/><path class="cls-1" d="M507.73,1002.07l18.46-19.79h11.53L516,1005l25.78,30.74H530.39L510,1011.42l-2.26,2.39v22h-8.61V941.86h8.61Z" transform="translate(-313.02 -13.91)"/><path class="cls-1" d="M563.93,962.14a6.15,6.15,0,1,1-12.28,0,6.15,6.15,0,1,1,12.28,0Zm-1.82,73.64h-8.63v-53.5h8.63Z" transform="translate(-313.02 -13.91)"/><path class="cls-1" d="M590.38,988.78h.22c3.56-5.14,8.19-8,14.45-8,14,0,17.25,10.71,17.25,23.24v31.75h-8.62v-30.17c0-8.65-.65-16.4-10.69-16.4-11.85,0-12.61,11.61-12.61,21.18v25.39h-8.63v-53.5h8.63Z" transform="translate(-313.02 -13.91)"/><path class="cls-1" d="M686.06,1033.17c0,8.53,0,15.93-5.18,23a24,24,0,0,1-19.62,9.43c-14.14,0-24.59-9.43-24.93-24.58H645c.13,9.9,6.9,16.16,16.17,16.16,13.39,0,16.3-10.36,16.3-22.43v-6.37h-.23a22,22,0,0,1-17.56,8.87c-14.78,0-24.16-13.08-24.16-28S645,980.79,660,980.79a20.76,20.76,0,0,1,17.25,9.1h.23v-7.61h8.63Zm-41.74-24.71c0,10.47,5.82,20.39,16.6,20.39,11.1,0,16.92-9.46,16.92-20.28s-6.36-19.36-17-19.36C650.78,989.21,644.32,998.43,644.32,1008.46Z" transform="translate(-313.02 -13.91)"/><path class="cls-1" d="M744.22,979.1l20.16,21.28,20.06-21.28,6,6.25-20.17,21.29,20.17,21.28-6,6.26-20.06-21.29-20.16,21.29-6-6.26,20.16-21.28-20.16-21.29Z" transform="translate(-313.02 -13.91)"/><path class="cls-1" d="M904.27,968.74a33.91,33.91,0,0,0-24.8-11.39c-18.12,0-32.78,16.61-32.78,35.51s14.78,35.52,33,35.52c9.17,0,18.13-4.56,24.59-11.38v11.85a40.49,40.49,0,0,1-24.26,8.4c-23,0-42.38-19.68-42.38-44,0-24.6,19.08-44.75,42.38-44.75a37.91,37.91,0,0,1,24.26,8.43Z" transform="translate(-313.02 -13.91)"/><path class="cls-1" d="M929.44,988.07h.21c3-4.21,5.61-7.28,11.21-7.28a14.61,14.61,0,0,1,7.77,2.52l-4.09,8.3c-1.73-1.25-2.91-2.4-5.18-2.4-9.5,0-9.92,12.86-9.92,19.82v26.75H920.8v-53.5h8.64Z" transform="translate(-313.02 -13.91)"/><path class="cls-1" d="M963.33,1011c.1,9.9,6.79,17.89,16.6,17.89,7.32,0,12.08-4.68,15.41-11.06l7.34,4.45c-4.85,9.55-13,15-23.39,15-15.11,0-24.82-12.18-24.82-27.54,0-15.82,8.75-28.92,24.59-28.92,16.28,0,24.9,14.24,24.05,30.17Zm30.72-7.75c-1.19-7.72-7.34-14-14.88-14s-14.35,6.28-15.43,14Z" transform="translate(-313.02 -13.91)"/><path class="cls-1" d="M1062.87,1035.78h-8.62v-7.4H1054a20.86,20.86,0,0,1-17.46,8.87c-14.89,0-24.26-13.32-24.26-28.11,0-15.25,9.17-28.35,24.36-28.35a21.55,21.55,0,0,1,17.36,9.1h.23v-7.61h8.62Zm-41.74-27.32c0,10.47,5.82,20.39,16.61,20.39,11.1,0,16.92-9.46,16.92-20.28s-6.36-19.36-17-19.36C1027.6,989.21,1021.13,998.43,1021.13,1008.46Z" transform="translate(-313.02 -13.91)"/><path class="cls-1" d="M1089.54,1035.78h-8.62V990.71h-5.28v-8.43h5.28V963h8.62v19.24h9.07v8.43h-9.07Z" transform="translate(-313.02 -13.91)"/><path class="cls-1" d="M1120.06,962.14a6.15,6.15,0,1,1-12.29,0,6.15,6.15,0,1,1,12.29,0Zm-1.83,73.64h-8.63v-53.5h8.63Z" transform="translate(-313.02 -13.91)"/><path class="cls-1" d="M1154.69,1018.25l15.11-36h9.71l-24.82,57-24.91-57h9.82Z" transform="translate(-313.02 -13.91)"/><path class="cls-1" d="M1193.74,1011c.11,9.9,6.8,17.89,16.61,17.89,7.32,0,12.08-4.68,15.41-11.06l7.33,4.45c-4.84,9.55-13,15-23.4,15-15.09,0-24.8-12.18-24.8-27.54,0-15.82,8.75-28.92,24.59-28.92,16.28,0,24.9,14.24,24,30.17Zm30.73-7.75c-1.19-7.72-7.34-14-14.89-14s-14.34,6.28-15.4,14Z" transform="translate(-313.02 -13.91)"/><path class="cls-1" d="M1286.74,979.1l20.17,21.28L1327,979.1l6,6.25-20.16,21.29,20.16,21.28-6,6.26-20.06-21.29-20.17,21.29-5.94-6.26,20.16-21.28-20.16-21.29Z" transform="translate(-313.02 -13.91)"/><path class="cls-1" d="M1388.89,1011.42l-9.81,24.36h-9.92l37.52-89.93,36.57,89.93h-10l-9.61-24.36Zm17.58-43.25-13.9,34.36h27.5Z" transform="translate(-313.02 -13.91)"/><path class="cls-1" d="M1461.91,988.07h.23c3-4.21,5.61-7.28,11.2-7.28a14.67,14.67,0,0,1,7.78,2.52l-4.1,8.3c-1.72-1.25-2.91-2.4-5.17-2.4-9.5,0-9.94,12.86-9.94,19.82v26.75h-8.6v-53.5h8.6Z" transform="translate(-313.02 -13.91)"/><path class="cls-1" d="M1502.72,1035.78h-8.63V990.71h-5.28v-8.43h5.28V963h8.63v19.24h9.06v8.43h-9.06Z" transform="translate(-313.02 -13.91)"/></svg>